<?xml version="1.0" encoding="UTF-8"?>
<svg id="Layer_2" xmlns="http://www.w3.org/2000/svg" viewBox="0 0 107.81 107.81">
  <defs>
    <style>
      .cls-1 {
        fill: #f1f2f2;
      }

      .cls-2 {
        fill: none;
        stroke: #fff;
        stroke-miterlimit: 10;
        stroke-width: 5px;
      }
    </style>
  </defs>
  <g id="Layer_1-2" data-name="Layer_1">
    <path class="cls-1" d="M92.36,29.05c-3.97-6.13-9.37-11.25-15.72-14.9-6.7-3.84-14.46-6.03-22.74-6.03s-16.04,2.19-22.74,6.03c-6.35,3.65-11.75,8.77-15.71,14.91-4.64,7.15-7.33,15.68-7.33,24.85s2.69,17.7,7.33,24.85c3.13,4.85,7.16,9.07,11.85,12.42,7.49,5.37,16.68,8.52,26.6,8.52s19.11-3.15,26.61-8.52c4.68-3.35,8.71-7.56,11.85-12.41,4.64-7.16,7.33-15.69,7.33-24.86s-2.69-17.7-7.33-24.86ZM84.86,49.55h2v2.01h-2v-2.01ZM84.86,52.6h2v2.01h-2v-2.01ZM81.09,40.64h2v3.53h-2v-3.53ZM80.59,45.07h3.53v3.53h-2.01v-1.52h-1.52v-2.01ZM77.44,32.26v2h-2.01v-2h2.01ZM79.24,35.31v3.53h-2v-3.53h2ZM75.72,76.07v-2h3.53v3.53h-2.01v-1.53h-1.52ZM83.05,79.12h-2v-3.53h2v3.53ZM84.02,74.87h-3.93v-3.05h-.63v1.53h-3.94v-21.35h-4.53v-9.15h-2.16v18.3h-11.54v-9.15h-9.14v-9.15h-6.72v9.15h-9.14v25.53h-11.54v-37.09h9.14v-9.15h20.67v9.15h6.73v-9.15h16.1v3.05h1.53v3.94h-1.53v.64h3.05v1.52h3.05v6.99h-1.53v.63h3.05v1.53h1.49v1.52h1.52v4.58h1.52v4.57h1.52v10.04h-1.52v1.52h-1.52v3.05ZM84.86,72.66h2v2.01h-2v-2.01ZM87.1,78.09h-2v-2h2v2Z"/>
    <circle class="cls-2" cx="53.9" cy="53.9" r="51.4"/>
  </g>
</svg>